<mxfile host="app.diagrams.net" modified="2023-10-28T05:46:39.802Z" agent="Mozilla/5.0 (Macintosh; Intel Mac OS X 10_15_7) AppleWebKit/537.36 (KHTML, like Gecko) Chrome/118.0.0.0 Safari/537.36" etag="CQgbJ5fb5Dg36W0Y9sr1" version="22.0.8" type="device">
  <diagram name="Page-1" id="GvjpWcWv78LuC5JaNQll">
    <mxGraphModel dx="1434" dy="790" grid="1" gridSize="10" guides="1" tooltips="1" connect="1" arrows="1" fold="1" page="1" pageScale="1" pageWidth="827" pageHeight="1169" math="0" shadow="0">
      <root>
        <mxCell id="0" />
        <mxCell id="1" parent="0" />
        <mxCell id="BaXGelW-kvEmbR5SzWdo-1" value="Navbar component" style="rounded=1;whiteSpace=wrap;html=1;sketch=1;curveFitting=1;jiggle=2;" vertex="1" parent="1">
          <mxGeometry x="520" y="410" width="216" height="120" as="geometry" />
        </mxCell>
        <mxCell id="BaXGelW-kvEmbR5SzWdo-5" style="edgeStyle=orthogonalEdgeStyle;rounded=0;orthogonalLoop=1;jettySize=auto;html=1;entryX=0;entryY=0.5;entryDx=0;entryDy=0;exitX=0.5;exitY=0;exitDx=0;exitDy=0;" edge="1" parent="1" source="BaXGelW-kvEmbR5SzWdo-2" target="BaXGelW-kvEmbR5SzWdo-4">
          <mxGeometry relative="1" as="geometry">
            <Array as="points">
              <mxPoint x="194" y="150" />
            </Array>
          </mxGeometry>
        </mxCell>
        <mxCell id="BaXGelW-kvEmbR5SzWdo-2" value="Page component" style="whiteSpace=wrap;html=1;aspect=fixed;sketch=1;curveFitting=1;jiggle=2;rounded=1;" vertex="1" parent="1">
          <mxGeometry x="94" y="360" width="200" height="200" as="geometry" />
        </mxCell>
        <mxCell id="BaXGelW-kvEmbR5SzWdo-6" style="edgeStyle=orthogonalEdgeStyle;rounded=0;orthogonalLoop=1;jettySize=auto;html=1;entryX=0.5;entryY=0;entryDx=0;entryDy=0;" edge="1" parent="1" source="BaXGelW-kvEmbR5SzWdo-4" target="BaXGelW-kvEmbR5SzWdo-1">
          <mxGeometry relative="1" as="geometry" />
        </mxCell>
        <mxCell id="BaXGelW-kvEmbR5SzWdo-4" value="Parent component" style="whiteSpace=wrap;html=1;aspect=fixed;rounded=1;sketch=1;curveFitting=1;jiggle=2;" vertex="1" parent="1">
          <mxGeometry x="330" y="70" width="160" height="160" as="geometry" />
        </mxCell>
        <mxCell id="BaXGelW-kvEmbR5SzWdo-7" value="Navbar component" style="rounded=1;whiteSpace=wrap;html=1;sketch=1;curveFitting=1;jiggle=2;" vertex="1" parent="1">
          <mxGeometry x="1380" y="420" width="216" height="120" as="geometry" />
        </mxCell>
        <mxCell id="BaXGelW-kvEmbR5SzWdo-8" value="Page component" style="whiteSpace=wrap;html=1;aspect=fixed;sketch=1;curveFitting=1;jiggle=2;rounded=1;" vertex="1" parent="1">
          <mxGeometry x="880" y="360" width="200" height="200" as="geometry" />
        </mxCell>
        <mxCell id="BaXGelW-kvEmbR5SzWdo-9" value="Traditional approach to state sharing" style="text;html=1;align=center;verticalAlign=middle;resizable=0;points=[];autosize=1;strokeColor=none;fillColor=none;" vertex="1" parent="1">
          <mxGeometry x="300" y="18" width="220" height="30" as="geometry" />
        </mxCell>
        <mxCell id="BaXGelW-kvEmbR5SzWdo-12" style="edgeStyle=orthogonalEdgeStyle;rounded=0;orthogonalLoop=1;jettySize=auto;html=1;entryX=0.5;entryY=0;entryDx=0;entryDy=0;" edge="1" parent="1" source="BaXGelW-kvEmbR5SzWdo-10" target="BaXGelW-kvEmbR5SzWdo-7">
          <mxGeometry relative="1" as="geometry" />
        </mxCell>
        <mxCell id="BaXGelW-kvEmbR5SzWdo-10" value="Redux store" style="shape=cylinder3;whiteSpace=wrap;html=1;boundedLbl=1;backgroundOutline=1;size=15;sketch=1;curveFitting=1;jiggle=2;" vertex="1" parent="1">
          <mxGeometry x="1210" y="70" width="100" height="140" as="geometry" />
        </mxCell>
        <mxCell id="BaXGelW-kvEmbR5SzWdo-11" style="edgeStyle=orthogonalEdgeStyle;rounded=0;orthogonalLoop=1;jettySize=auto;html=1;entryX=0;entryY=0.5;entryDx=0;entryDy=0;entryPerimeter=0;exitX=0.5;exitY=0;exitDx=0;exitDy=0;" edge="1" parent="1" source="BaXGelW-kvEmbR5SzWdo-8" target="BaXGelW-kvEmbR5SzWdo-10">
          <mxGeometry relative="1" as="geometry" />
        </mxCell>
      </root>
    </mxGraphModel>
  </diagram>
</mxfile>
